<?xml version="1.0" standalone="no"?>
<!DOCTYPE svg PUBLIC "-//W3C//DTD SVG 20010904//EN"
 "http://www.w3.org/TR/2001/REC-SVG-20010904/DTD/svg10.dtd">
<svg version="1.0" xmlns="http://www.w3.org/2000/svg"
 width="64.000000pt" height="64.000000pt" viewBox="0 0 64.000000 64.000000"
 preserveAspectRatio="xMidYMid meet">

<g transform="translate(0.000000,64.000000) scale(0.100000,-0.100000)"
fill="#000000" stroke="none">
<path d="M168 552 l-98 -77 0 -197 0 -196 50 -11 c28 -6 71 -11 95 -11 l45 0
0 109 c0 61 3 112 8 114 4 3 22 2 40 0 l32 -5 0 -123 0 -124 54 -11 c30 -6 74
-10 98 -8 l43 3 3 190 2 190 -94 111 c-130 153 -142 155 -278 46z"/>
</g>
</svg>
